<svg width="40" height="40" viewBox="0 0 40 40" fill="none" xmlns="http://www.w3.org/2000/svg">
<path d="M6 0.05H34C37.2861 0.05 39.95 2.71391 39.95 6V34C39.95 37.2861 37.2861 39.95 34 39.95H6C2.7139 39.95 0.05 37.2861 0.05 34V6C0.05 2.7139 2.71391 0.05 6 0.05Z" fill="black"/>
<path d="M6 0.05H34C37.2861 0.05 39.95 2.71391 39.95 6V34C39.95 37.2861 37.2861 39.95 34 39.95H6C2.7139 39.95 0.05 37.2861 0.05 34V6C0.05 2.7139 2.71391 0.05 6 0.05Z" stroke="#ABABAB" stroke-width="0.1"/>
<path d="M25.3109 30.296C24.7669 30.296 24.3616 30.1307 24.0949 29.8C23.8389 29.4693 23.7109 29.032 23.7109 28.488C23.7109 28.2107 23.7429 27.928 23.8069 27.64L24.8309 22.84H24.3029L24.4309 22.2H24.9589L25.4389 19.992L27.8069 19.672C27.7109 20.0773 27.6576 20.3173 27.6469 20.392C27.5723 20.6907 27.4443 21.2933 27.2629 22.2H28.2229L28.0949 22.84H27.1349L26.1109 27.64C26.0576 27.8747 26.0309 28.0613 26.0309 28.2C26.0309 28.584 26.2176 28.776 26.5909 28.776C26.7829 28.776 26.9216 28.76 27.0069 28.728C26.7936 29.3467 26.5429 29.7627 26.2549 29.976C25.9669 30.1893 25.6523 30.296 25.3109 30.296Z" fill="white"/>
<path d="M22.2133 21.336C21.8613 21.336 21.5627 21.2133 21.3173 20.968C21.072 20.7227 20.9493 20.424 20.9493 20.072C20.9493 19.72 21.072 19.4213 21.3173 19.176C21.5627 18.92 21.8613 18.792 22.2133 18.792C22.5653 18.792 22.864 18.92 23.1093 19.176C23.3653 19.4213 23.4933 19.72 23.4933 20.072C23.4933 20.424 23.3653 20.7227 23.1093 20.968C22.864 21.2133 22.5653 21.336 22.2133 21.336ZM21.1253 30.296C20.6133 30.296 20.1973 30.136 19.8773 29.816C19.568 29.496 19.4133 29.016 19.4133 28.376C19.4133 28.1093 19.456 27.7627 19.5413 27.336L20.6293 22.2H22.9333L21.7813 27.64C21.7387 27.8 21.7173 27.9707 21.7173 28.152C21.7173 28.3653 21.7653 28.52 21.8613 28.616C21.968 28.7013 22.1387 28.744 22.3733 28.744C22.6827 28.744 22.9707 28.616 23.2373 28.36C23.504 28.0933 23.696 27.752 23.8133 27.336H24.4853C24.0907 28.488 23.584 29.272 22.9653 29.688C22.3467 30.0933 21.7333 30.296 21.1253 30.296Z" fill="white"/>
<path d="M14.2639 34.2C13.7519 34.2 13.3252 34.0667 12.9839 33.8C12.6425 33.5333 12.4719 33.1493 12.4719 32.648C12.4719 32.04 12.7172 31.5493 13.2079 31.176C13.6985 30.8133 14.3225 30.5093 15.0799 30.264L15.2719 29.416C14.7279 30.0027 14.0879 30.296 13.3519 30.296C12.7439 30.296 12.2372 30.088 11.8319 29.672C11.4265 29.256 11.2239 28.6053 11.2239 27.72C11.2239 26.9307 11.3785 26.104 11.6879 25.24C12.0079 24.3653 12.4772 23.6293 13.0959 23.032C13.7252 22.424 14.4719 22.12 15.3359 22.12C15.7732 22.12 16.0985 22.1947 16.3119 22.344C16.5252 22.4933 16.6319 22.6907 16.6319 22.936V23.032L16.8079 22.2H19.1119L17.5279 29.624C18.0399 29.4533 18.4505 29.1973 18.7599 28.856C19.0692 28.5147 19.3305 28.008 19.5439 27.336H20.2159C19.9279 28.2853 19.5385 28.984 19.0479 29.432C18.5572 29.8693 18.0025 30.168 17.3839 30.328L17.1439 31.48C16.9305 32.5147 16.5625 33.224 16.0399 33.608C15.5172 34.0027 14.9252 34.2 14.2639 34.2ZM14.3919 28.744C14.6372 28.744 14.8879 28.632 15.1439 28.408C15.3999 28.184 15.5759 27.88 15.6719 27.496L16.4879 23.704C16.4879 23.576 16.4345 23.448 16.3279 23.32C16.2212 23.1813 16.0559 23.112 15.8319 23.112C15.4052 23.112 15.0212 23.3627 14.6799 23.864C14.3385 24.3547 14.0719 24.952 13.8799 25.656C13.6879 26.3493 13.5919 26.9627 13.5919 27.496C13.5919 28.0293 13.6665 28.3707 13.8159 28.52C13.9759 28.6693 14.1679 28.744 14.3919 28.744ZM13.8959 32.952C14.0772 32.952 14.2532 32.8293 14.4239 32.584C14.5945 32.3387 14.7279 31.9867 14.8239 31.528L14.9199 31.064C13.8745 31.448 13.3519 31.9013 13.3519 32.424C13.3519 32.5627 13.3999 32.6853 13.4959 32.792C13.5919 32.8987 13.7252 32.952 13.8959 32.952Z" fill="white"/>
<path d="M28.4543 18.296C27.6649 18.296 27.0516 18.0934 26.6143 17.688C26.1769 17.272 25.9583 16.6267 25.9583 15.752C25.9583 15.016 26.1023 14.2054 26.3903 13.32C26.6783 12.4347 27.1476 11.672 27.7983 11.032C28.4489 10.3814 29.2756 10.056 30.2783 10.056C31.4516 10.056 32.0383 10.568 32.0383 11.592C32.0383 12.1894 31.8676 12.7387 31.5263 13.24C31.1849 13.7414 30.7316 14.1467 30.1663 14.456C29.6009 14.7547 28.9983 14.9254 28.3583 14.968C28.3369 15.288 28.3263 15.5014 28.3263 15.608C28.3263 16.1307 28.4169 16.488 28.5983 16.68C28.7796 16.8614 29.0729 16.952 29.4783 16.952C30.0543 16.952 30.5449 16.8187 30.9503 16.552C31.3663 16.2854 31.8196 15.88 32.3103 15.336H32.8543C31.6703 17.3094 30.2036 18.296 28.4543 18.296ZM28.4863 14.2C28.8809 14.1787 29.2543 14.04 29.6063 13.784C29.9689 13.528 30.2569 13.2027 30.4703 12.808C30.6943 12.4134 30.8063 11.9974 30.8063 11.56C30.8063 11.1227 30.6729 10.904 30.4063 10.904C30.0223 10.904 29.6436 11.24 29.2703 11.912C28.9076 12.584 28.6463 13.3467 28.4863 14.2Z" fill="white"/>
<path d="M23.4847 18.296C22.9727 18.296 22.5567 18.136 22.2367 17.816C21.9274 17.496 21.7727 17.016 21.7727 16.376C21.7727 16.1093 21.8154 15.7627 21.9007 15.336L23.6127 7.32L25.9807 7L24.1407 15.64C24.098 15.8 24.0767 15.9707 24.0767 16.152C24.0767 16.3653 24.1247 16.52 24.2207 16.616C24.3274 16.7013 24.498 16.744 24.7327 16.744C25.042 16.744 25.33 16.616 25.5967 16.36C25.8634 16.0933 26.0554 15.752 26.1727 15.336H26.8447C26.45 16.488 25.9434 17.272 25.3247 17.688C24.706 18.0933 24.0927 18.296 23.4847 18.296Z" fill="white"/>
<path d="M18.048 18.296C17.2587 18.296 16.6453 18.0934 16.208 17.688C15.7707 17.272 15.552 16.6267 15.552 15.752C15.552 15.016 15.696 14.2054 15.984 13.32C16.272 12.4347 16.7413 11.672 17.392 11.032C18.0427 10.3814 18.8693 10.056 19.872 10.056C21.0453 10.056 21.632 10.568 21.632 11.592C21.632 12.1894 21.4613 12.7387 21.12 13.24C20.7787 13.7414 20.3253 14.1467 19.76 14.456C19.1947 14.7547 18.592 14.9254 17.952 14.968C17.9307 15.288 17.92 15.5014 17.92 15.608C17.92 16.1307 18.0107 16.488 18.192 16.68C18.3733 16.8614 18.6667 16.952 19.072 16.952C19.648 16.952 20.1387 16.8187 20.544 16.552C20.96 16.2854 21.4133 15.88 21.904 15.336H22.448C21.264 17.3094 19.7973 18.296 18.048 18.296ZM18.08 14.2C18.4747 14.1787 18.848 14.04 19.2 13.784C19.5627 13.528 19.8507 13.2027 20.064 12.808C20.288 12.4134 20.4 11.9974 20.4 11.56C20.4 11.1227 20.2667 10.904 20 10.904C19.616 10.904 19.2373 11.24 18.864 11.912C18.5013 12.584 18.24 13.3467 18.08 14.2Z" fill="white"/>
<path d="M9.27375 18.296C8.66575 18.296 8.15909 18.088 7.75375 17.672C7.34842 17.256 7.14575 16.6053 7.14575 15.72C7.14575 14.9307 7.30042 14.104 7.60975 13.24C7.92975 12.3653 8.39909 11.6293 9.01775 11.032C9.64709 10.424 10.3938 10.12 11.2578 10.12C11.6951 10.12 12.0204 10.1947 12.2338 10.344C12.4471 10.4933 12.5538 10.6907 12.5538 10.936V11L13.3378 7.32L15.7058 7L13.8658 15.64C13.8231 15.8 13.8018 15.9707 13.8018 16.152C13.8018 16.3653 13.8498 16.52 13.9458 16.616C14.0524 16.7013 14.2231 16.744 14.4578 16.744C14.7564 16.744 15.0124 16.616 15.2258 16.36C15.4498 16.104 15.6258 15.7627 15.7538 15.336H16.4258C15.7751 17.2453 14.7031 18.2 13.2098 18.2C12.7724 18.2 12.4151 18.0827 12.1378 17.848C11.8711 17.6133 11.7058 17.272 11.6418 16.824C11.3644 17.2507 11.0284 17.6027 10.6338 17.88C10.2498 18.1573 9.79642 18.296 9.27375 18.296ZM10.3138 16.744C10.5698 16.744 10.8258 16.6267 11.0818 16.392C11.3484 16.1573 11.5298 15.832 11.6258 15.416V15.336L12.4098 11.672C12.3138 11.2987 12.0951 11.112 11.7538 11.112C11.3271 11.112 10.9431 11.3627 10.6018 11.864C10.2604 12.3547 9.99375 12.952 9.80175 13.656C9.60975 14.3493 9.51375 14.9627 9.51375 15.496C9.51375 16.0293 9.58842 16.3707 9.73775 16.52C9.89775 16.6693 10.0898 16.744 10.3138 16.744Z" fill="white"/>
</svg>
