<svg width="40" height="40" viewBox="0 0 40 40" fill="none" xmlns="http://www.w3.org/2000/svg">
<rect x="0.05" y="0.05" width="39.9" height="39.9" rx="5.95" fill="white"/>
<rect x="0.05" y="0.05" width="39.9" height="39.9" rx="5.95" stroke="#ABABAB" stroke-width="0.1"/>
<path d="M13.4636 37C11.6168 37 10.0779 36.3739 8.84673 35.1218C7.61558 33.8697 7 31.9112 7 29.2465C7 26.8706 7.46978 24.3824 8.40935 21.7819C9.38131 19.1492 10.8069 16.9339 12.686 15.136C14.5975 13.306 16.8654 12.3909 19.4897 12.3909C20.8181 12.3909 21.8062 12.6157 22.4542 13.0652C23.1022 13.5146 23.4262 14.1086 23.4262 14.847V15.0397L25.8075 3.96317L33 3L27.4112 29.0057C27.2816 29.4873 27.2168 29.9528 27.2168 30.4023C27.2168 31.6865 27.881 32.3286 29.2093 32.3286C29.7925 32.3286 30.3109 32.2323 30.7645 32.0397C30.6349 33.6449 30.0517 34.881 29.015 35.7479C28.0106 36.5826 26.8118 37 25.4187 37C24.1227 37 23.0212 36.6789 22.114 36.0368C21.2393 35.3626 20.6561 34.3513 20.3645 33.0028C18.4206 35.6676 16.1202 37 13.4636 37ZM16.6224 32.3286C17.3352 32.3286 18.048 32.0236 18.7607 31.4136C19.5059 30.8036 20.0567 29.9528 20.4131 28.8612L20.6075 28.0907L22.9888 17.0623C22.6972 15.9386 22.033 15.3768 20.9963 15.3768C19.7003 15.3768 18.534 16.1313 17.4972 17.6402C16.4604 19.1171 15.6505 20.915 15.0673 23.034C14.4841 25.1209 14.1925 26.967 14.1925 28.5722C14.1925 30.1775 14.4193 31.2049 14.8729 31.6544C15.3589 32.1039 15.9421 32.3286 16.6224 32.3286Z" fill="black"/>
</svg>
