<svg width="40" height="40" viewBox="0 0 40 40" fill="none" xmlns="http://www.w3.org/2000/svg">
<rect width="40" height="40" rx="6" fill="white"/>
<path d="M23.46 31.984L17.1567 32.864L20.1806 18.168C18.8177 18.2853 17.5684 18.9013 16.4327 20.016C15.2686 21.1307 14.36 22.5093 13.707 24.152C13.0539 25.7947 12.7274 27.408 12.7274 28.992C12.7274 30.752 13.1675 32.1893 14.0477 33.304C14.9279 34.4187 16.2482 34.976 18.0085 34.976C21.4725 34.976 24.184 34.0373 26.1431 32.16C28.0738 30.2827 29.0392 27.6573 29.0392 24.284C29.0392 23.1987 28.9398 22.436 28.7411 21.996C28.5423 21.5853 28.4429 21.3507 28.4429 21.292C29.9762 21.292 31.1261 21.6147 31.8927 22.26C32.6309 22.9347 33 24.0347 33 25.56C33 27.4373 32.2618 29.256 30.7853 31.016C29.2805 32.8053 27.364 34.2427 25.0358 35.328C22.7076 36.4427 20.3793 37 18.0511 37C15.8081 37 13.9341 36.604 12.4293 35.812C10.9245 35.02 9.81715 33.964 9.10732 32.644C8.36911 31.3533 8 29.916 8 28.332C8 26.4253 8.51107 24.5627 9.53322 22.744C10.527 20.9253 11.9608 19.4293 13.8348 18.256C15.7087 17.112 17.8666 16.54 20.3083 16.54L20.5213 16.54L23.1193 4L29.2521 4L23.46 31.984Z" fill="black"/>
</svg>
