<svg width="40" height="40" viewBox="0 0 40 40" fill="none" xmlns="http://www.w3.org/2000/svg">
<rect x="0.05" y="0.05" width="39.9" height="39.9" rx="5.95" fill="white"/>
<rect x="0.05" y="0.05" width="39.9" height="39.9" rx="5.95" stroke="#ABABAB" stroke-width="0.1"/>
<path d="M22.6948 37C20.6291 37 18.529 36.2128 16.3944 34.6383L15.9812 36.4207H8.5446L15.5681 8.07995L23.2113 7.18873L17.0141 32.1874C17.9781 32.7816 18.9593 33.0786 19.9577 33.0786C21.9202 33.0786 23.6416 32.0983 25.1221 30.1376C26.6369 28.1769 27.8075 25.6815 28.6338 22.6514C29.4601 19.6212 29.8732 16.5614 29.8732 13.4718C29.8732 10.5605 29.2019 8.43643 27.8592 7.09961C26.5509 5.73307 24.7089 5.0498 22.3333 5.0498C19.7512 5.0498 17.4272 5.49541 15.3615 6.38663C13.3302 7.24814 11.7293 8.49585 10.5587 10.1298C9.38811 11.7637 8.80282 13.6798 8.80282 15.8781C8.80282 16.9773 8.92332 17.7497 9.16432 18.1953C9.40532 18.6112 9.52582 18.8488 9.52582 18.9083C7.73552 18.9083 6.35837 18.5815 5.39437 17.9279C4.46479 17.2744 4 16.2197 4 14.7641C4 12.744 4.87793 10.8279 6.6338 9.01573C8.38967 7.20358 10.7308 5.74792 13.6573 4.64875C16.6182 3.54958 19.8028 3 23.2113 3C27.928 3 31.4053 4.20315 33.6432 6.60944C35.8811 9.01573 37 12.0904 37 15.8336C37 19.2202 36.3286 22.5623 34.9859 25.8598C33.6776 29.1276 31.9218 31.8012 29.7183 33.8807C27.5149 35.9602 25.1737 37 22.6948 37Z" fill="black"/>
</svg>
