<svg width="40" height="40" viewBox="0 0 40 40" fill="none" xmlns="http://www.w3.org/2000/svg">
<rect x="0.05" y="0.05" width="39.9" height="39.9" rx="5.95" fill="white"/>
<rect x="0.05" y="0.05" width="39.9" height="39.9" rx="5.95" stroke="#ABABAB" stroke-width="0.1"/>
<path d="M34.7202 23.847C34.2782 23.847 33.9488 23.7127 33.7322 23.444C33.5242 23.1754 33.4202 22.82 33.4202 22.378C33.4202 22.1527 33.4462 21.923 33.4982 21.689L34.3302 17.789H33.9012L34.0052 17.269H34.4342L34.8242 15.475L36.7482 15.215C36.6702 15.5444 36.6268 15.7394 36.6182 15.8C36.5575 16.0427 36.4535 16.5324 36.3062 17.269H37.0862L36.9822 17.789H36.2022L35.3702 21.689C35.3268 21.8797 35.3052 22.0314 35.3052 22.144C35.3052 22.456 35.4568 22.612 35.7602 22.612C35.9162 22.612 36.0288 22.599 36.0982 22.573C35.9248 23.0757 35.7212 23.4137 35.4872 23.587C35.2532 23.7604 34.9975 23.847 34.7202 23.847Z" fill="black"/>
<path d="M32.2032 16.567C31.9172 16.567 31.6746 16.4673 31.4752 16.268C31.2759 16.0687 31.1762 15.826 31.1762 15.54C31.1762 15.254 31.2759 15.0113 31.4752 14.812C31.6746 14.604 31.9172 14.5 32.2032 14.5C32.4892 14.5 32.7319 14.604 32.9312 14.812C33.1392 15.0113 33.2432 15.254 33.2432 15.54C33.2432 15.826 33.1392 16.0687 32.9312 16.268C32.7319 16.4673 32.4892 16.567 32.2032 16.567ZM31.3192 23.847C30.9032 23.847 30.5652 23.717 30.3052 23.457C30.0539 23.197 29.9282 22.807 29.9282 22.287C29.9282 22.0703 29.9629 21.7887 30.0322 21.442L30.9162 17.269H32.7882L31.8522 21.689C31.8176 21.819 31.8002 21.9577 31.8002 22.105C31.8002 22.2783 31.8392 22.404 31.9172 22.482C32.0039 22.5513 32.1426 22.586 32.3332 22.586C32.5846 22.586 32.8186 22.482 33.0352 22.274C33.2519 22.0573 33.4079 21.78 33.5032 21.442H34.0492C33.7286 22.378 33.3169 23.015 32.8142 23.353C32.3116 23.6823 31.8132 23.847 31.3192 23.847Z" fill="black"/>
<path d="M25.7444 27.019C25.3284 27.019 24.9817 26.9106 24.7044 26.694C24.4271 26.4773 24.2884 26.1653 24.2884 25.758C24.2884 25.264 24.4877 24.8653 24.8864 24.562C25.2851 24.2673 25.7921 24.0203 26.4074 23.821L26.5634 23.132C26.1214 23.6086 25.6014 23.847 25.0034 23.847C24.5094 23.847 24.0977 23.678 23.7684 23.34C23.4391 23.002 23.2744 22.4733 23.2744 21.754C23.2744 21.1126 23.4001 20.441 23.6514 19.739C23.9114 19.0283 24.2927 18.4303 24.7954 17.945C25.3067 17.451 25.9134 17.204 26.6154 17.204C26.9707 17.204 27.2351 17.2646 27.4084 17.386C27.5817 17.5073 27.6684 17.6676 27.6684 17.867V17.945L27.8114 17.269H29.6834L28.3964 23.301C28.8124 23.1623 29.1461 22.9543 29.3974 22.677C29.6487 22.3996 29.8611 21.988 30.0344 21.442H30.5804C30.3464 22.2133 30.0301 22.781 29.6314 23.145C29.2327 23.5003 28.7821 23.743 28.2794 23.873L28.0844 24.809C27.9111 25.6496 27.6121 26.226 27.1874 26.538C26.7627 26.8586 26.2817 27.019 25.7444 27.019ZM25.8484 22.586C26.0477 22.586 26.2514 22.495 26.4594 22.313C26.6674 22.131 26.8104 21.884 26.8884 21.572L27.5514 18.491C27.5514 18.387 27.5081 18.283 27.4214 18.179C27.3347 18.0663 27.2004 18.01 27.0184 18.01C26.6717 18.01 26.3597 18.2136 26.0824 18.621C25.8051 19.0196 25.5884 19.505 25.4324 20.077C25.2764 20.6403 25.1984 21.1386 25.1984 21.572C25.1984 22.0053 25.2591 22.2826 25.3804 22.404C25.5104 22.5253 25.6664 22.586 25.8484 22.586ZM25.4454 26.005C25.5927 26.005 25.7357 25.9053 25.8744 25.706C26.0131 25.5066 26.1214 25.2206 26.1994 24.848L26.2774 24.471C25.4281 24.783 25.0034 25.1513 25.0034 25.576C25.0034 25.6886 25.0424 25.7883 25.1204 25.875C25.1984 25.9616 25.3067 26.005 25.4454 26.005Z" fill="black"/>
<path d="M20.3132 23.847C19.6718 23.847 19.1735 23.6823 18.8182 23.353C18.4628 23.015 18.2852 22.4906 18.2852 21.78C18.2852 21.182 18.4022 20.5233 18.6362 19.804C18.8702 19.0846 19.2515 18.465 19.7802 17.945C20.3088 17.4163 20.9805 17.152 21.7952 17.152C22.7485 17.152 23.2252 17.568 23.2252 18.4C23.2252 18.8853 23.0865 19.3316 22.8092 19.739C22.5318 20.1463 22.1635 20.4756 21.7042 20.727C21.2448 20.9696 20.7552 21.1083 20.2352 21.143C20.2178 21.403 20.2092 21.5763 20.2092 21.663C20.2092 22.0876 20.2828 22.378 20.4302 22.534C20.5775 22.6813 20.8158 22.755 21.1452 22.755C21.6132 22.755 22.0118 22.6466 22.3412 22.43C22.6792 22.2133 23.0475 21.884 23.4462 21.442H23.8882C22.9262 23.0453 21.7345 23.847 20.3132 23.847ZM20.3392 20.519C20.6598 20.5016 20.9632 20.389 21.2492 20.181C21.5438 19.973 21.7778 19.7086 21.9512 19.388C22.1332 19.0673 22.2242 18.7293 22.2242 18.374C22.2242 18.0186 22.1158 17.841 21.8992 17.841C21.5872 17.841 21.2795 18.114 20.9762 18.66C20.6815 19.206 20.4692 19.8256 20.3392 20.519Z" fill="black"/>
<path d="M16.2753 23.847C15.8593 23.847 15.5213 23.717 15.2613 23.457C15.0099 23.197 14.8843 22.807 14.8843 22.287C14.8843 22.0703 14.9189 21.7887 14.9883 21.442L16.3793 14.929L18.3033 14.669L16.8083 21.689C16.7736 21.819 16.7563 21.9577 16.7563 22.105C16.7563 22.2783 16.7953 22.404 16.8733 22.482C16.9599 22.5513 17.0986 22.586 17.2893 22.586C17.5406 22.586 17.7746 22.482 17.9913 22.274C18.2079 22.0573 18.3639 21.78 18.4593 21.442H19.0053C18.6846 22.378 18.2729 23.015 17.7703 23.353C17.2676 23.6823 16.7693 23.847 16.2753 23.847Z" fill="black"/>
<path d="M11.8581 23.847C11.2167 23.847 10.7184 23.6823 10.3631 23.353C10.0077 23.015 9.83008 22.4906 9.83008 21.78C9.83008 21.182 9.94708 20.5233 10.1811 19.804C10.4151 19.0846 10.7964 18.465 11.3251 17.945C11.8537 17.4163 12.5254 17.152 13.3401 17.152C14.2934 17.152 14.7701 17.568 14.7701 18.4C14.7701 18.8853 14.6314 19.3316 14.3541 19.739C14.0767 20.1463 13.7084 20.4756 13.2491 20.727C12.7897 20.9696 12.3001 21.1083 11.7801 21.143C11.7627 21.403 11.7541 21.5763 11.7541 21.663C11.7541 22.0876 11.8277 22.378 11.9751 22.534C12.1224 22.6813 12.3607 22.755 12.6901 22.755C13.1581 22.755 13.5567 22.6466 13.8861 22.43C14.2241 22.2133 14.5924 21.884 14.9911 21.442H15.4331C14.4711 23.0453 13.2794 23.847 11.8581 23.847ZM11.8841 20.519C12.2047 20.5016 12.5081 20.389 12.7941 20.181C13.0887 19.973 13.3227 19.7086 13.4961 19.388C13.6781 19.0673 13.7691 18.7293 13.7691 18.374C13.7691 18.0186 13.6607 17.841 13.4441 17.841C13.1321 17.841 12.8244 18.114 12.5211 18.66C12.2264 19.206 12.0141 19.8256 11.8841 20.519Z" fill="black"/>
<path d="M4.729 23.847C4.235 23.847 3.82333 23.678 3.494 23.34C3.16467 23.002 3 22.4733 3 21.754C3 21.1127 3.12567 20.441 3.377 19.739C3.637 19.0283 4.01833 18.4303 4.521 17.945C5.03233 17.451 5.639 17.204 6.341 17.204C6.69633 17.204 6.96067 17.2647 7.134 17.386C7.30733 17.5073 7.394 17.6677 7.394 17.867V17.919L8.031 14.929L9.955 14.669L8.46 21.689C8.42533 21.819 8.408 21.9577 8.408 22.105C8.408 22.2783 8.447 22.404 8.525 22.482C8.61167 22.5513 8.75033 22.586 8.941 22.586C9.18367 22.586 9.39167 22.482 9.565 22.274C9.747 22.066 9.89 21.7887 9.994 21.442H10.54C10.0113 22.9933 9.14033 23.769 7.927 23.769C7.57167 23.769 7.28133 23.6737 7.056 23.483C6.83933 23.2923 6.705 23.015 6.653 22.651C6.42767 22.9977 6.15467 23.2837 5.834 23.509C5.522 23.7343 5.15367 23.847 4.729 23.847ZM5.574 22.586C5.782 22.586 5.99 22.4907 6.198 22.3C6.41467 22.1093 6.562 21.845 6.64 21.507V21.442L7.277 18.465C7.199 18.1617 7.02133 18.01 6.744 18.01C6.39733 18.01 6.08533 18.2137 5.808 18.621C5.53067 19.0197 5.314 19.505 5.158 20.077C5.002 20.6403 4.924 21.1387 4.924 21.572C4.924 22.0053 4.98467 22.2827 5.106 22.404C5.236 22.5253 5.392 22.586 5.574 22.586Z" fill="black"/>
</svg>
