<svg width="40" height="40" viewBox="0 0 40 40" fill="none" xmlns="http://www.w3.org/2000/svg">
<rect x="0.05" y="0.05" width="39.9" height="39.9" rx="5.95" fill="black"/>
<rect x="0.05" y="0.05" width="39.9" height="39.9" rx="5.95" stroke="#ABABAB" stroke-width="0.1"/>
<path d="M34.5903 23.347C34.1483 23.347 33.819 23.2127 33.6023 22.944C33.3943 22.6753 33.2903 22.32 33.2903 21.878C33.2903 21.6527 33.3163 21.423 33.3683 21.189L34.2003 17.289H33.7713L33.8753 16.769H34.3043L34.6943 14.975L36.6183 14.715C36.5403 15.0443 36.4969 15.2393 36.4883 15.3C36.4276 15.5427 36.3236 16.0323 36.1763 16.769H36.9563L36.8523 17.289H36.0723L35.2403 21.189C35.197 21.3797 35.1753 21.5313 35.1753 21.644C35.1753 21.956 35.327 22.112 35.6303 22.112C35.7863 22.112 35.8989 22.099 35.9683 22.073C35.7949 22.5757 35.5913 22.9137 35.3573 23.087C35.1233 23.2603 34.8676 23.347 34.5903 23.347Z" fill="white"/>
<path d="M32.0733 16.067C31.7873 16.067 31.5447 15.9673 31.3453 15.768C31.146 15.5687 31.0463 15.326 31.0463 15.04C31.0463 14.754 31.146 14.5113 31.3453 14.312C31.5447 14.104 31.7873 14 32.0733 14C32.3593 14 32.602 14.104 32.8013 14.312C33.0093 14.5113 33.1133 14.754 33.1133 15.04C33.1133 15.326 33.0093 15.5687 32.8013 15.768C32.602 15.9673 32.3593 16.067 32.0733 16.067ZM31.1893 23.347C30.7733 23.347 30.4353 23.217 30.1753 22.957C29.924 22.697 29.7983 22.307 29.7983 21.787C29.7983 21.5703 29.833 21.2887 29.9023 20.942L30.7863 16.769H32.6583L31.7223 21.189C31.6877 21.319 31.6703 21.4577 31.6703 21.605C31.6703 21.7783 31.7093 21.904 31.7873 21.982C31.874 22.0513 32.0127 22.086 32.2033 22.086C32.4547 22.086 32.6887 21.982 32.9053 21.774C33.122 21.5573 33.278 21.28 33.3733 20.942H33.9193C33.5987 21.878 33.187 22.515 32.6843 22.853C32.1817 23.1823 31.6833 23.347 31.1893 23.347Z" fill="white"/>
<path d="M25.6145 26.519C25.1985 26.519 24.8519 26.4107 24.5745 26.194C24.2972 25.9773 24.1585 25.6653 24.1585 25.258C24.1585 24.764 24.3579 24.3653 24.7565 24.062C25.1552 23.7673 25.6622 23.5203 26.2775 23.321L26.4335 22.632C25.9915 23.1087 25.4715 23.347 24.8735 23.347C24.3795 23.347 23.9679 23.178 23.6385 22.84C23.3092 22.502 23.1445 21.9733 23.1445 21.254C23.1445 20.6127 23.2702 19.941 23.5215 19.239C23.7815 18.5283 24.1629 17.9303 24.6655 17.445C25.1769 16.951 25.7835 16.704 26.4855 16.704C26.8409 16.704 27.1052 16.7647 27.2785 16.886C27.4519 17.0073 27.5385 17.1677 27.5385 17.367V17.445L27.6815 16.769H29.5535L28.2665 22.801C28.6825 22.6623 29.0162 22.4543 29.2675 22.177C29.5189 21.8997 29.7312 21.488 29.9045 20.942H30.4505C30.2165 21.7133 29.9002 22.281 29.5015 22.645C29.1029 23.0003 28.6522 23.243 28.1495 23.373L27.9545 24.309C27.7812 25.1497 27.4822 25.726 27.0575 26.038C26.6329 26.3587 26.1519 26.519 25.6145 26.519ZM25.7185 22.086C25.9179 22.086 26.1215 21.995 26.3295 21.813C26.5375 21.631 26.6805 21.384 26.7585 21.072L27.4215 17.991C27.4215 17.887 27.3782 17.783 27.2915 17.679C27.2049 17.5663 27.0705 17.51 26.8885 17.51C26.5419 17.51 26.2299 17.7137 25.9525 18.121C25.6752 18.5197 25.4585 19.005 25.3025 19.577C25.1465 20.1403 25.0685 20.6387 25.0685 21.072C25.0685 21.5053 25.1292 21.7827 25.2505 21.904C25.3805 22.0253 25.5365 22.086 25.7185 22.086ZM25.3155 25.505C25.4629 25.505 25.6059 25.4053 25.7445 25.206C25.8832 25.0067 25.9915 24.7207 26.0695 24.348L26.1475 23.971C25.2982 24.283 24.8735 24.6513 24.8735 25.076C24.8735 25.1887 24.9125 25.2883 24.9905 25.375C25.0685 25.4617 25.1769 25.505 25.3155 25.505Z" fill="white"/>
<path d="M20.1833 23.347C19.5419 23.347 19.0436 23.1823 18.6883 22.853C18.3329 22.515 18.1553 21.9907 18.1553 21.28C18.1553 20.682 18.2723 20.0233 18.5063 19.304C18.7403 18.5847 19.1216 17.965 19.6503 17.445C20.1789 16.9163 20.8506 16.652 21.6653 16.652C22.6186 16.652 23.0953 17.068 23.0953 17.9C23.0953 18.3853 22.9566 18.8317 22.6793 19.239C22.4019 19.6463 22.0336 19.9757 21.5743 20.227C21.1149 20.4697 20.6253 20.6083 20.1053 20.643C20.0879 20.903 20.0793 21.0763 20.0793 21.163C20.0793 21.5877 20.1529 21.878 20.3003 22.034C20.4476 22.1813 20.6859 22.255 21.0153 22.255C21.4833 22.255 21.8819 22.1467 22.2113 21.93C22.5493 21.7133 22.9176 21.384 23.3163 20.942H23.7583C22.7963 22.5453 21.6046 23.347 20.1833 23.347ZM20.2093 20.019C20.5299 20.0017 20.8333 19.889 21.1193 19.681C21.4139 19.473 21.6479 19.2087 21.8213 18.888C22.0033 18.5673 22.0943 18.2293 22.0943 17.874C22.0943 17.5187 21.9859 17.341 21.7693 17.341C21.4573 17.341 21.1496 17.614 20.8463 18.16C20.5516 18.706 20.3393 19.3257 20.2093 20.019Z" fill="white"/>
<path d="M16.1454 23.347C15.7294 23.347 15.3914 23.217 15.1314 22.957C14.8801 22.697 14.7544 22.307 14.7544 21.787C14.7544 21.5703 14.7891 21.2887 14.8584 20.942L16.2494 14.429L18.1734 14.169L16.6784 21.189C16.6437 21.319 16.6264 21.4577 16.6264 21.605C16.6264 21.7783 16.6654 21.904 16.7434 21.982C16.8301 22.0513 16.9687 22.086 17.1594 22.086C17.4107 22.086 17.6447 21.982 17.8614 21.774C18.0781 21.5573 18.2341 21.28 18.3294 20.942H18.8754C18.5547 21.878 18.1431 22.515 17.6404 22.853C17.1377 23.1823 16.6394 23.347 16.1454 23.347Z" fill="white"/>
<path d="M11.7282 23.347C11.0869 23.347 10.5885 23.1823 10.2332 22.853C9.87786 22.515 9.7002 21.9907 9.7002 21.28C9.7002 20.682 9.8172 20.0233 10.0512 19.304C10.2852 18.5847 10.6665 17.965 11.1952 17.445C11.7239 16.9163 12.3955 16.652 13.2102 16.652C14.1635 16.652 14.6402 17.068 14.6402 17.9C14.6402 18.3853 14.5015 18.8317 14.2242 19.239C13.9469 19.6463 13.5785 19.9757 13.1192 20.227C12.6599 20.4697 12.1702 20.6083 11.6502 20.643C11.6329 20.903 11.6242 21.0763 11.6242 21.163C11.6242 21.5877 11.6979 21.878 11.8452 22.034C11.9925 22.1813 12.2309 22.255 12.5602 22.255C13.0282 22.255 13.4269 22.1467 13.7562 21.93C14.0942 21.7133 14.4625 21.384 14.8612 20.942H15.3032C14.3412 22.5453 13.1495 23.347 11.7282 23.347ZM11.7542 20.019C12.0749 20.0017 12.3782 19.889 12.6642 19.681C12.9589 19.473 13.1929 19.2087 13.3662 18.888C13.5482 18.5673 13.6392 18.2293 13.6392 17.874C13.6392 17.5187 13.5309 17.341 13.3142 17.341C13.0022 17.341 12.6945 17.614 12.3912 18.16C12.0965 18.706 11.8842 19.3257 11.7542 20.019Z" fill="white"/>
<path d="M4.59912 23.347C4.10512 23.347 3.69345 23.178 3.36412 22.84C3.03478 22.502 2.87012 21.9733 2.87012 21.254C2.87012 20.6127 2.99578 19.941 3.24712 19.239C3.50712 18.5283 3.88845 17.9303 4.39112 17.445C4.90245 16.951 5.50912 16.704 6.21112 16.704C6.56645 16.704 6.83078 16.7647 7.00412 16.886C7.17745 17.0073 7.26412 17.1677 7.26412 17.367V17.419L7.90112 14.429L9.82512 14.169L8.33012 21.189C8.29545 21.319 8.27812 21.4577 8.27812 21.605C8.27812 21.7783 8.31712 21.904 8.39512 21.982C8.48178 22.0513 8.62045 22.086 8.81112 22.086C9.05378 22.086 9.26178 21.982 9.43512 21.774C9.61712 21.566 9.76012 21.2887 9.86412 20.942H10.4101C9.88145 22.4933 9.01045 23.269 7.79712 23.269C7.44178 23.269 7.15145 23.1737 6.92612 22.983C6.70945 22.7923 6.57512 22.515 6.52312 22.151C6.29778 22.4977 6.02478 22.7837 5.70412 23.009C5.39212 23.2343 5.02378 23.347 4.59912 23.347ZM5.44412 22.086C5.65212 22.086 5.86012 21.9907 6.06812 21.8C6.28478 21.6093 6.43212 21.345 6.51012 21.007V20.942L7.14712 17.965C7.06912 17.6617 6.89145 17.51 6.61412 17.51C6.26745 17.51 5.95545 17.7137 5.67812 18.121C5.40078 18.5197 5.18412 19.005 5.02812 19.577C4.87212 20.1403 4.79412 20.6387 4.79412 21.072C4.79412 21.5053 4.85478 21.7827 4.97612 21.904C5.10612 22.0253 5.26212 22.086 5.44412 22.086Z" fill="white"/>
</svg>
