<svg width="40" height="40" viewBox="0 0 40 40" fill="none" xmlns="http://www.w3.org/2000/svg">
<path d="M6 0.05H34C37.2861 0.05 39.95 2.71391 39.95 6V34C39.95 37.2861 37.2861 39.95 34 39.95H6C2.7139 39.95 0.05 37.2861 0.05 34V6C0.05 2.7139 2.71391 0.05 6 0.05Z" fill="black"/>
<path d="M6 0.05H34C37.2861 0.05 39.95 2.71391 39.95 6V34C39.95 37.2861 37.2861 39.95 34 39.95H6C2.7139 39.95 0.05 37.2861 0.05 34V6C0.05 2.7139 2.71391 0.05 6 0.05Z" stroke="#ABABAB" stroke-width="0.1"/>
<path d="M21.8279 38C19.6369 38 17.4095 37.1664 15.1455 35.4993L14.7074 37.3866H6.82003L14.2692 7.37877L22.3756 6.43513L15.8028 32.9043C16.8252 33.5334 17.8659 33.848 18.9249 33.848C21.0063 33.848 22.832 32.81 24.4022 30.7339C26.0089 28.6579 27.2504 26.0157 28.1268 22.8073C29.0031 19.599 29.4413 16.3591 29.4413 13.0878C29.4413 10.0052 28.7293 7.75623 27.3052 6.34076C25.9176 4.89384 23.964 4.17038 21.4444 4.17038C18.7058 4.17038 16.241 4.6422 14.0501 5.58585C11.8957 6.49804 10.1977 7.81913 8.95618 9.54915C7.71466 11.2792 7.0939 13.308 7.0939 15.6356C7.0939 16.7995 7.2217 17.6173 7.47731 18.0891C7.73292 18.5295 7.86072 18.7811 7.86072 18.844C5.96192 18.844 4.5013 18.498 3.47887 17.806C2.49296 17.114 2 15.9974 2 14.4561C2 12.3172 2.93114 10.2883 4.79343 8.3696C6.65571 6.45085 9.13876 4.90957 12.2426 3.74574C15.3829 2.58191 18.7606 2 22.3756 2C27.3782 2 31.0663 3.27392 33.4398 5.82176C35.8133 8.36959 37 11.6252 37 15.5885C37 19.1743 36.288 22.713 34.8639 26.2045C33.4763 29.6645 31.614 32.4954 29.277 34.6972C26.94 36.8991 24.457 38 21.8279 38Z" fill="white"/>
</svg>
